<svg width="315" height="106" viewBox="0 0 315 106" fill="none" xmlns="http://www.w3.org/2000/svg">
<mask id="path-1-outside-1_23_2" maskUnits="userSpaceOnUse" x="0.800049" y="0.0999956" width="314" height="106" fill="black">
<rect fill="white" x="0.800049" y="0.0999956" width="314" height="106"/>
<path d="M16.2 80C13.7334 80 11.4667 79.4333 9.40005 78.3C7.40005 77.1 5.80005 75.5 4.60005 73.5C3.40005 71.5 2.80005 69.2333 2.80005 66.7V64.5C2.80005 62.1 3.36672 59.9 4.50005 57.9C5.70005 55.9 7.26672 54.3 9.20005 53.1C11.1334 51.8333 13.3 51.2 15.7 51.2V30.3C13.2334 30.2333 11.0334 29.6 9.10005 28.4C7.16672 27.2 5.63338 25.6333 4.50005 23.7C3.36672 21.7667 2.80005 19.6667 2.80005 17.4V15.2C2.80005 12.7333 3.36672 10.5333 4.50005 8.6C5.70005 6.66666 7.26672 5.13333 9.20005 3.99999C11.2 2.79999 13.4 2.19999 15.8 2.19999H41C43.4667 2.19999 45.6667 2.79999 47.6 3.99999C49.6001 5.13333 51.1667 6.66666 52.3 8.6C53.5 10.5333 54.1 12.7333 54.1 15.2V17.4C54.1 19.6667 53.5334 21.7667 52.4001 23.7C51.3334 25.6333 49.8 27.2 47.8 28.4C45.8667 29.6 43.6 30.2333 41 30.3V47.2C41 47.6 40.8001 47.8 40.4001 47.8C40.0001 47.8 39.8001 47.6 39.8001 47.2V29.7C39.8001 29.3 39.9667 29.1 40.3001 29.1C43.9667 29.1 46.9667 27.9667 49.3001 25.7C51.7001 23.4333 52.9001 20.6667 52.9001 17.4V15.2C52.9001 13 52.3667 11 51.3 9.2C50.2334 7.4 48.8001 6 47.0001 4.99999C45.2001 3.93333 43.2 3.4 41 3.4H15.8C12.5334 3.4 9.73338 4.53333 7.40005 6.79999C5.13338 9.06666 4.00005 11.8667 4.00005 15.2V17.4C4.00005 20.6667 5.16672 23.4333 7.50005 25.7C9.83338 27.9667 12.7667 29.1 16.3 29.1C16.7 29.1 16.9001 29.3 16.9001 29.7V51.8C16.9001 52.1333 16.7 52.3 16.3 52.3C14.0334 52.3 11.9667 52.8667 10.1 54C8.23338 55.0667 6.73338 56.5333 5.60005 58.4C4.53338 60.2 4.00005 62.2333 4.00005 64.5V66.7C4.00005 70.1667 5.16672 73.0667 7.50005 75.4C9.90005 77.6667 12.8 78.8 16.2 78.8H40.9001C44.3667 78.8 47.2667 77.6667 49.6001 75.4C52.0001 73.0667 53.2001 70.1667 53.2001 66.7V65.5C53.2001 61.5667 51.9667 58.3667 49.5001 55.9C47.1001 53.4333 43.9667 52.1667 40.1001 52.1C39.2334 52.1 38.3001 52.2667 37.3001 52.6C36.3667 52.9333 35.4667 53.5 34.6 54.3C34.2 54.5667 33.8667 54.5667 33.6001 54.3C33.3334 54.0333 33.3667 53.7333 33.7001 53.4C34.5001 52.6 35.5 52 36.7001 51.6C37.9667 51.1333 39.1001 50.9 40.1001 50.9C42.9001 50.9 45.3667 51.5333 47.5 52.8C49.6334 54.0667 51.3001 55.8 52.5001 58C53.7667 60.2 54.4001 62.7 54.4001 65.5V66.7C54.4001 69.2333 53.8001 71.5 52.6001 73.5C51.4001 75.5 49.7667 77.1 47.7001 78.3C45.7001 79.4333 43.4334 80 40.9001 80H16.2Z"/>
<path d="M101.327 81C97.4599 81 94.2599 80.2667 91.7266 78.8C89.1933 77.3333 87.4599 75.5 86.5266 73.3C85.9266 75.2333 84.8266 76.8333 83.2266 78.1C81.6933 79.3667 79.9266 80 77.9266 80H70.3266C67.8599 80 65.7266 79.1 63.9266 77.3C62.1266 75.4333 61.2266 73.1333 61.2266 70.4V11.9C61.2266 9.16666 62.1266 6.86666 63.9266 4.99999C65.7933 3.13333 68.2599 2.19999 71.3266 2.19999H76.7266C79.8599 2.19999 82.3266 3.16666 84.1266 5.1C85.9266 7.03333 86.8266 9.3 86.8266 11.9V24.1C86.8266 24.4333 86.6266 24.6 86.2266 24.6C85.8266 24.6 85.6266 24.4333 85.6266 24.1V11.9C85.6266 9.56666 84.8266 7.56666 83.2266 5.89999C81.6266 4.23333 79.4599 3.4 76.7266 3.4H71.3266C68.6599 3.4 66.4933 4.23333 64.8266 5.89999C63.2266 7.56666 62.4266 9.56666 62.4266 11.9V70.4C62.4266 72.8 63.1933 74.8 64.7266 76.4C66.2599 78 68.1266 78.8 70.3266 78.8H77.9266C80.1266 78.8 81.9599 78 83.4266 76.4C84.9599 74.7333 85.7266 72.7333 85.7266 70.4C85.7266 70 85.9266 69.8 86.3266 69.8C86.7933 69.8 87.0266 70 87.0266 70.4C87.0266 72.7333 88.2599 74.9 90.7266 76.9C93.1933 78.8333 96.7266 79.8 101.327 79.8C104.927 79.8 107.827 79.0667 110.027 77.6C112.293 76.0667 113.993 74.1 115.127 71.7C116.327 69.3 117.127 66.7333 117.527 64C117.993 61.2 118.227 58.5 118.227 55.9V53.9C118.227 50.1 117.627 46.5 116.427 43.1C115.293 39.6333 113.427 36.8333 110.827 34.7C108.227 32.5 104.793 31.4 100.527 31.4C97.1266 31.4 94.1599 32.0667 91.6266 33.4C89.0933 34.6667 87.0933 36.3667 85.6266 38.5C84.1599 40.6333 83.2599 42.9667 82.9266 45.5C82.9266 45.8333 82.7266 46 82.3266 46C81.9266 46 81.7266 45.8 81.7266 45.4C82.0599 42.6667 83.0266 40.1667 84.6266 37.9C86.2266 35.5667 88.3599 33.7 91.0266 32.3C93.7599 30.9 96.9266 30.2 100.527 30.2C104.993 30.2 108.593 31.3333 111.327 33.6C114.127 35.8667 116.16 38.8 117.427 42.4C118.76 46 119.427 49.8333 119.427 53.9V55.9C119.427 58.5 119.193 61.2667 118.727 64.2C118.26 67.1333 117.393 69.8667 116.127 72.4C114.927 74.9333 113.127 77 110.727 78.6C108.327 80.2 105.193 81 101.327 81Z"/>
<path d="M135.661 80C133.128 80 130.961 79.0667 129.161 77.2C127.361 75.3333 126.461 73.0667 126.461 70.4V11.9C126.461 9.16666 127.394 6.86666 129.261 4.99999C131.128 3.06666 133.594 2.1 136.661 2.1H142.061C145.061 2.1 147.461 3.06666 149.261 4.99999C151.128 6.86666 152.061 9.16666 152.061 11.9V70.4C152.061 73.0667 151.194 75.3333 149.461 77.2C147.794 79.0667 145.728 80 143.261 80H135.661ZM127.661 70.4C127.661 72.7333 128.428 74.7333 129.961 76.4C131.494 78 133.394 78.8 135.661 78.8H143.261C145.394 78.8 147.194 78 148.661 76.4C150.128 74.7333 150.861 72.7333 150.861 70.4V11.9C150.861 9.5 150.061 7.46666 148.461 5.8C146.861 4.13333 144.728 3.3 142.061 3.3H136.661C133.928 3.3 131.728 4.13333 130.061 5.8C128.461 7.46666 127.661 9.5 127.661 11.9V70.4Z"/>
<path d="M172.855 27.7C169.188 27.7 166.155 26.5 163.755 24.1C161.355 21.7 160.155 18.6667 160.155 15C160.155 11.2667 161.355 8.2 163.755 5.8C166.155 3.39999 169.188 2.19999 172.855 2.19999C176.521 2.19999 179.555 3.39999 181.955 5.8C184.355 8.2 185.555 11.2667 185.555 15C185.555 18.6667 184.355 21.7 181.955 24.1C179.555 26.5 176.521 27.7 172.855 27.7ZM161.355 15C161.355 18.4 162.421 21.1667 164.555 23.3C166.688 25.4333 169.455 26.5 172.855 26.5C176.255 26.5 179.021 25.4333 181.155 23.3C183.288 21.1667 184.355 18.4 184.355 15C184.355 11.6 183.288 8.83333 181.155 6.7C179.021 4.5 176.255 3.4 172.855 3.4C169.455 3.4 166.688 4.5 164.555 6.7C162.421 8.83333 161.355 11.6 161.355 15ZM169.255 80C166.721 80 164.555 79.0667 162.755 77.2C160.955 75.3333 160.055 73.0667 160.055 70.4V41C160.055 38.2667 160.988 35.9667 162.855 34.1C164.721 32.1667 167.188 31.2 170.255 31.2H175.655C178.655 31.2 181.055 32.1667 182.855 34.1C184.721 35.9667 185.655 38.2667 185.655 41V70.4C185.655 73.0667 184.788 75.3333 183.055 77.2C181.388 79.0667 179.321 80 176.855 80H169.255ZM161.255 70.4C161.255 72.7333 162.021 74.7333 163.555 76.4C165.088 78 166.988 78.8 169.255 78.8H176.855C178.988 78.8 180.788 78 182.255 76.4C183.721 74.7333 184.455 72.7333 184.455 70.4V41C184.455 38.6 183.655 36.5667 182.055 34.9C180.455 33.2333 178.321 32.4 175.655 32.4H170.255C167.521 32.4 165.321 33.2333 163.655 34.9C162.055 36.5667 161.255 38.6 161.255 41V70.4Z"/>
<path d="M203.448 80C200.782 80 198.482 79.0667 196.548 77.2C194.615 75.2667 193.648 72.9667 193.648 70.3V41.2C193.648 38.4667 194.615 36.1333 196.548 34.2C198.482 32.2 200.782 31.2 203.448 31.2H208.248C210.782 31.2 212.948 32.0333 214.748 33.7C216.615 35.3667 217.682 37.5 217.948 40.1C218.948 37.3 220.748 34.9667 223.348 33.1C225.948 31.1667 229.082 30.2 232.748 30.2C235.948 30.2 238.748 31 241.148 32.6C243.615 34.1333 245.548 36.2 246.948 38.8C248.348 41.4 249.048 44.3333 249.048 47.6V70.4C249.048 73.0667 248.082 75.3333 246.148 77.2C244.282 79.0667 241.982 80 239.248 80C238.782 80 238.548 79.8 238.548 79.4C238.548 79 238.782 78.8 239.248 78.8C241.648 78.8 243.682 78 245.348 76.4C247.015 74.7333 247.848 72.7333 247.848 70.4V47.6C247.848 44.6 247.215 41.8667 245.948 39.4C244.682 36.9333 242.915 35 240.648 33.6C238.382 32.1333 235.748 31.4 232.748 31.4C229.815 31.4 227.282 32.0333 225.148 33.3C223.015 34.5 221.348 36.1 220.148 38.1C218.948 40.1 218.248 42.2667 218.048 44.6C218.048 45 217.848 45.2 217.448 45.2C217.048 45.2 216.848 45 216.848 44.6V41.2C216.848 38.6667 216.015 36.5667 214.348 34.9C212.682 33.2333 210.648 32.4 208.248 32.4H203.448C201.048 32.4 199.015 33.3 197.348 35.1C195.682 36.8333 194.848 38.8667 194.848 41.2V70.3C194.848 72.6333 195.682 74.6333 197.348 76.3C199.015 77.9667 201.048 78.8 203.448 78.8H208.648C211.048 78.8 213.048 77.9667 214.648 76.3C216.315 74.6333 217.148 72.6333 217.148 70.3C217.148 69.9 217.348 69.7 217.748 69.7C218.148 69.7 218.348 69.9 218.348 70.3C218.348 72.9667 217.415 75.2667 215.548 77.2C213.682 79.0667 211.382 80 208.648 80H203.448Z"/>
<path d="M297.639 103.4C294.972 103.4 292.672 102.433 290.739 100.5C288.806 98.6333 287.839 96.3667 287.839 93.7V85.3C287.839 84.9 288.039 84.7 288.439 84.7C288.839 84.7 289.039 84.9 289.039 85.3V93.7C289.039 96.1 289.872 98.1 291.539 99.7C293.206 101.367 295.239 102.2 297.639 102.2H302.839C305.239 102.2 307.272 101.367 308.939 99.7C310.606 98.1 311.439 96.1 311.439 93.7V41C311.439 38.6 310.606 36.5667 308.939 34.9C307.272 33.2333 305.239 32.4 302.839 32.4H297.639C295.172 32.4 293.106 33.2 291.439 34.8C289.839 36.4 289.039 38.5333 289.039 41.2V41.7C289.039 42.1 288.839 42.3 288.439 42.3C288.172 42.3 287.972 42.1 287.839 41.7C286.706 38.3667 285.172 35.8333 283.239 34.1C281.372 32.3 278.472 31.4 274.539 31.4C268.872 31.4 264.472 33.5 261.339 37.7C258.272 41.8333 256.739 47.6 256.739 55C256.739 59.2667 257.406 63.3 258.739 67.1C260.139 70.8333 262.306 73.9 265.239 76.3C268.239 78.6333 272.139 79.8 276.939 79.8C280.739 79.8 283.772 79.2 286.039 78C288.306 76.7333 289.939 75.0333 290.939 72.9C292.006 70.7667 292.539 68.4333 292.539 65.9C292.539 65.5 292.739 65.3 293.139 65.3C293.539 65.3 293.739 65.5 293.739 65.9C293.739 68.7 293.172 71.2333 292.039 73.5C290.906 75.7667 289.106 77.6 286.639 79C284.172 80.3333 280.939 81 276.939 81C271.872 81 267.772 79.7667 264.639 77.3C261.506 74.7667 259.206 71.5333 257.739 67.6C256.272 63.6 255.539 59.4 255.539 55C255.539 47.2667 257.206 41.2 260.539 36.8C263.872 32.4 268.506 30.2 274.439 30.2C277.906 30.2 280.772 30.9 283.039 32.3C285.306 33.7 286.972 35.9667 288.039 39.1C288.372 36.6333 289.472 34.7 291.339 33.3C293.272 31.9 295.372 31.2 297.639 31.2H302.839C305.572 31.2 307.872 32.1667 309.739 34.1C311.672 35.9667 312.639 38.2667 312.639 41V93.7C312.639 96.3667 311.672 98.6333 309.739 100.5C307.872 102.433 305.572 103.4 302.839 103.4H297.639Z"/>
</mask>
<path d="M16.2 80C13.7334 80 11.4667 79.4333 9.40005 78.3C7.40005 77.1 5.80005 75.5 4.60005 73.5C3.40005 71.5 2.80005 69.2333 2.80005 66.7V64.5C2.80005 62.1 3.36672 59.9 4.50005 57.9C5.70005 55.9 7.26672 54.3 9.20005 53.1C11.1334 51.8333 13.3 51.2 15.7 51.2V30.3C13.2334 30.2333 11.0334 29.6 9.10005 28.4C7.16672 27.2 5.63338 25.6333 4.50005 23.7C3.36672 21.7667 2.80005 19.6667 2.80005 17.4V15.2C2.80005 12.7333 3.36672 10.5333 4.50005 8.6C5.70005 6.66666 7.26672 5.13333 9.20005 3.99999C11.2 2.79999 13.4 2.19999 15.8 2.19999H41C43.4667 2.19999 45.6667 2.79999 47.6 3.99999C49.6001 5.13333 51.1667 6.66666 52.3 8.6C53.5 10.5333 54.1 12.7333 54.1 15.2V17.4C54.1 19.6667 53.5334 21.7667 52.4001 23.7C51.3334 25.6333 49.8 27.2 47.8 28.4C45.8667 29.6 43.6 30.2333 41 30.3V47.2C41 47.6 40.8001 47.8 40.4001 47.8C40.0001 47.8 39.8001 47.6 39.8001 47.2V29.7C39.8001 29.3 39.9667 29.1 40.3001 29.1C43.9667 29.1 46.9667 27.9667 49.3001 25.7C51.7001 23.4333 52.9001 20.6667 52.9001 17.4V15.2C52.9001 13 52.3667 11 51.3 9.2C50.2334 7.4 48.8001 6 47.0001 4.99999C45.2001 3.93333 43.2 3.4 41 3.4H15.8C12.5334 3.4 9.73338 4.53333 7.40005 6.79999C5.13338 9.06666 4.00005 11.8667 4.00005 15.2V17.4C4.00005 20.6667 5.16672 23.4333 7.50005 25.7C9.83338 27.9667 12.7667 29.1 16.3 29.1C16.7 29.1 16.9001 29.3 16.9001 29.7V51.8C16.9001 52.1333 16.7 52.3 16.3 52.3C14.0334 52.3 11.9667 52.8667 10.1 54C8.23338 55.0667 6.73338 56.5333 5.60005 58.4C4.53338 60.2 4.00005 62.2333 4.00005 64.5V66.7C4.00005 70.1667 5.16672 73.0667 7.50005 75.4C9.90005 77.6667 12.8 78.8 16.2 78.8H40.9001C44.3667 78.8 47.2667 77.6667 49.6001 75.4C52.0001 73.0667 53.2001 70.1667 53.2001 66.7V65.5C53.2001 61.5667 51.9667 58.3667 49.5001 55.9C47.1001 53.4333 43.9667 52.1667 40.1001 52.1C39.2334 52.1 38.3001 52.2667 37.3001 52.6C36.3667 52.9333 35.4667 53.5 34.6 54.3C34.2 54.5667 33.8667 54.5667 33.6001 54.3C33.3334 54.0333 33.3667 53.7333 33.7001 53.4C34.5001 52.6 35.5 52 36.7001 51.6C37.9667 51.1333 39.1001 50.9 40.1001 50.9C42.9001 50.9 45.3667 51.5333 47.5 52.8C49.6334 54.0667 51.3001 55.8 52.5001 58C53.7667 60.2 54.4001 62.7 54.4001 65.5V66.7C54.4001 69.2333 53.8001 71.5 52.6001 73.5C51.4001 75.5 49.7667 77.1 47.7001 78.3C45.7001 79.4333 43.4334 80 40.9001 80H16.2Z" fill="white"/>
<path d="M101.327 81C97.4599 81 94.2599 80.2667 91.7266 78.8C89.1933 77.3333 87.4599 75.5 86.5266 73.3C85.9266 75.2333 84.8266 76.8333 83.2266 78.1C81.6933 79.3667 79.9266 80 77.9266 80H70.3266C67.8599 80 65.7266 79.1 63.9266 77.3C62.1266 75.4333 61.2266 73.1333 61.2266 70.4V11.9C61.2266 9.16666 62.1266 6.86666 63.9266 4.99999C65.7933 3.13333 68.2599 2.19999 71.3266 2.19999H76.7266C79.8599 2.19999 82.3266 3.16666 84.1266 5.1C85.9266 7.03333 86.8266 9.3 86.8266 11.9V24.1C86.8266 24.4333 86.6266 24.6 86.2266 24.6C85.8266 24.6 85.6266 24.4333 85.6266 24.1V11.9C85.6266 9.56666 84.8266 7.56666 83.2266 5.89999C81.6266 4.23333 79.4599 3.4 76.7266 3.4H71.3266C68.6599 3.4 66.4933 4.23333 64.8266 5.89999C63.2266 7.56666 62.4266 9.56666 62.4266 11.9V70.4C62.4266 72.8 63.1933 74.8 64.7266 76.4C66.2599 78 68.1266 78.8 70.3266 78.8H77.9266C80.1266 78.8 81.9599 78 83.4266 76.4C84.9599 74.7333 85.7266 72.7333 85.7266 70.4C85.7266 70 85.9266 69.8 86.3266 69.8C86.7933 69.8 87.0266 70 87.0266 70.4C87.0266 72.7333 88.2599 74.9 90.7266 76.9C93.1933 78.8333 96.7266 79.8 101.327 79.8C104.927 79.8 107.827 79.0667 110.027 77.6C112.293 76.0667 113.993 74.1 115.127 71.7C116.327 69.3 117.127 66.7333 117.527 64C117.993 61.2 118.227 58.5 118.227 55.9V53.9C118.227 50.1 117.627 46.5 116.427 43.1C115.293 39.6333 113.427 36.8333 110.827 34.7C108.227 32.5 104.793 31.4 100.527 31.4C97.1266 31.4 94.1599 32.0667 91.6266 33.4C89.0933 34.6667 87.0933 36.3667 85.6266 38.5C84.1599 40.6333 83.2599 42.9667 82.9266 45.5C82.9266 45.8333 82.7266 46 82.3266 46C81.9266 46 81.7266 45.8 81.7266 45.4C82.0599 42.6667 83.0266 40.1667 84.6266 37.9C86.2266 35.5667 88.3599 33.7 91.0266 32.3C93.7599 30.9 96.9266 30.2 100.527 30.2C104.993 30.2 108.593 31.3333 111.327 33.6C114.127 35.8667 116.16 38.8 117.427 42.4C118.76 46 119.427 49.8333 119.427 53.9V55.9C119.427 58.5 119.193 61.2667 118.727 64.2C118.26 67.1333 117.393 69.8667 116.127 72.4C114.927 74.9333 113.127 77 110.727 78.6C108.327 80.2 105.193 81 101.327 81Z" fill="white"/>
<path d="M135.661 80C133.128 80 130.961 79.0667 129.161 77.2C127.361 75.3333 126.461 73.0667 126.461 70.4V11.9C126.461 9.16666 127.394 6.86666 129.261 4.99999C131.128 3.06666 133.594 2.1 136.661 2.1H142.061C145.061 2.1 147.461 3.06666 149.261 4.99999C151.128 6.86666 152.061 9.16666 152.061 11.9V70.4C152.061 73.0667 151.194 75.3333 149.461 77.2C147.794 79.0667 145.728 80 143.261 80H135.661ZM127.661 70.4C127.661 72.7333 128.428 74.7333 129.961 76.4C131.494 78 133.394 78.8 135.661 78.8H143.261C145.394 78.8 147.194 78 148.661 76.4C150.128 74.7333 150.861 72.7333 150.861 70.4V11.9C150.861 9.5 150.061 7.46666 148.461 5.8C146.861 4.13333 144.728 3.3 142.061 3.3H136.661C133.928 3.3 131.728 4.13333 130.061 5.8C128.461 7.46666 127.661 9.5 127.661 11.9V70.4Z" fill="white"/>
<path d="M172.855 27.7C169.188 27.7 166.155 26.5 163.755 24.1C161.355 21.7 160.155 18.6667 160.155 15C160.155 11.2667 161.355 8.2 163.755 5.8C166.155 3.39999 169.188 2.19999 172.855 2.19999C176.521 2.19999 179.555 3.39999 181.955 5.8C184.355 8.2 185.555 11.2667 185.555 15C185.555 18.6667 184.355 21.7 181.955 24.1C179.555 26.5 176.521 27.7 172.855 27.7ZM161.355 15C161.355 18.4 162.421 21.1667 164.555 23.3C166.688 25.4333 169.455 26.5 172.855 26.5C176.255 26.5 179.021 25.4333 181.155 23.3C183.288 21.1667 184.355 18.4 184.355 15C184.355 11.6 183.288 8.83333 181.155 6.7C179.021 4.5 176.255 3.4 172.855 3.4C169.455 3.4 166.688 4.5 164.555 6.7C162.421 8.83333 161.355 11.6 161.355 15ZM169.255 80C166.721 80 164.555 79.0667 162.755 77.2C160.955 75.3333 160.055 73.0667 160.055 70.4V41C160.055 38.2667 160.988 35.9667 162.855 34.1C164.721 32.1667 167.188 31.2 170.255 31.2H175.655C178.655 31.2 181.055 32.1667 182.855 34.1C184.721 35.9667 185.655 38.2667 185.655 41V70.4C185.655 73.0667 184.788 75.3333 183.055 77.2C181.388 79.0667 179.321 80 176.855 80H169.255ZM161.255 70.4C161.255 72.7333 162.021 74.7333 163.555 76.4C165.088 78 166.988 78.8 169.255 78.8H176.855C178.988 78.8 180.788 78 182.255 76.4C183.721 74.7333 184.455 72.7333 184.455 70.4V41C184.455 38.6 183.655 36.5667 182.055 34.9C180.455 33.2333 178.321 32.4 175.655 32.4H170.255C167.521 32.4 165.321 33.2333 163.655 34.9C162.055 36.5667 161.255 38.6 161.255 41V70.4Z" fill="white"/>
<path d="M203.448 80C200.782 80 198.482 79.0667 196.548 77.2C194.615 75.2667 193.648 72.9667 193.648 70.3V41.2C193.648 38.4667 194.615 36.1333 196.548 34.2C198.482 32.2 200.782 31.2 203.448 31.2H208.248C210.782 31.2 212.948 32.0333 214.748 33.7C216.615 35.3667 217.682 37.5 217.948 40.1C218.948 37.3 220.748 34.9667 223.348 33.1C225.948 31.1667 229.082 30.2 232.748 30.2C235.948 30.2 238.748 31 241.148 32.6C243.615 34.1333 245.548 36.2 246.948 38.8C248.348 41.4 249.048 44.3333 249.048 47.6V70.4C249.048 73.0667 248.082 75.3333 246.148 77.2C244.282 79.0667 241.982 80 239.248 80C238.782 80 238.548 79.8 238.548 79.4C238.548 79 238.782 78.8 239.248 78.8C241.648 78.8 243.682 78 245.348 76.4C247.015 74.7333 247.848 72.7333 247.848 70.4V47.6C247.848 44.6 247.215 41.8667 245.948 39.4C244.682 36.9333 242.915 35 240.648 33.6C238.382 32.1333 235.748 31.4 232.748 31.4C229.815 31.4 227.282 32.0333 225.148 33.3C223.015 34.5 221.348 36.1 220.148 38.1C218.948 40.1 218.248 42.2667 218.048 44.6C218.048 45 217.848 45.2 217.448 45.2C217.048 45.2 216.848 45 216.848 44.6V41.2C216.848 38.6667 216.015 36.5667 214.348 34.9C212.682 33.2333 210.648 32.4 208.248 32.4H203.448C201.048 32.4 199.015 33.3 197.348 35.1C195.682 36.8333 194.848 38.8667 194.848 41.2V70.3C194.848 72.6333 195.682 74.6333 197.348 76.3C199.015 77.9667 201.048 78.8 203.448 78.8H208.648C211.048 78.8 213.048 77.9667 214.648 76.3C216.315 74.6333 217.148 72.6333 217.148 70.3C217.148 69.9 217.348 69.7 217.748 69.7C218.148 69.7 218.348 69.9 218.348 70.3C218.348 72.9667 217.415 75.2667 215.548 77.2C213.682 79.0667 211.382 80 208.648 80H203.448Z" fill="white"/>
<path d="M297.639 103.4C294.972 103.4 292.672 102.433 290.739 100.5C288.806 98.6333 287.839 96.3667 287.839 93.7V85.3C287.839 84.9 288.039 84.7 288.439 84.7C288.839 84.7 289.039 84.9 289.039 85.3V93.7C289.039 96.1 289.872 98.1 291.539 99.7C293.206 101.367 295.239 102.2 297.639 102.2H302.839C305.239 102.2 307.272 101.367 308.939 99.7C310.606 98.1 311.439 96.1 311.439 93.7V41C311.439 38.6 310.606 36.5667 308.939 34.9C307.272 33.2333 305.239 32.4 302.839 32.4H297.639C295.172 32.4 293.106 33.2 291.439 34.8C289.839 36.4 289.039 38.5333 289.039 41.2V41.7C289.039 42.1 288.839 42.3 288.439 42.3C288.172 42.3 287.972 42.1 287.839 41.7C286.706 38.3667 285.172 35.8333 283.239 34.1C281.372 32.3 278.472 31.4 274.539 31.4C268.872 31.4 264.472 33.5 261.339 37.7C258.272 41.8333 256.739 47.6 256.739 55C256.739 59.2667 257.406 63.3 258.739 67.1C260.139 70.8333 262.306 73.9 265.239 76.3C268.239 78.6333 272.139 79.8 276.939 79.8C280.739 79.8 283.772 79.2 286.039 78C288.306 76.7333 289.939 75.0333 290.939 72.9C292.006 70.7667 292.539 68.4333 292.539 65.9C292.539 65.5 292.739 65.3 293.139 65.3C293.539 65.3 293.739 65.5 293.739 65.9C293.739 68.7 293.172 71.2333 292.039 73.5C290.906 75.7667 289.106 77.6 286.639 79C284.172 80.3333 280.939 81 276.939 81C271.872 81 267.772 79.7667 264.639 77.3C261.506 74.7667 259.206 71.5333 257.739 67.6C256.272 63.6 255.539 59.4 255.539 55C255.539 47.2667 257.206 41.2 260.539 36.8C263.872 32.4 268.506 30.2 274.439 30.2C277.906 30.2 280.772 30.9 283.039 32.3C285.306 33.7 286.972 35.9667 288.039 39.1C288.372 36.6333 289.472 34.7 291.339 33.3C293.272 31.9 295.372 31.2 297.639 31.2H302.839C305.572 31.2 307.872 32.1667 309.739 34.1C311.672 35.9667 312.639 38.2667 312.639 41V93.7C312.639 96.3667 311.672 98.6333 309.739 100.5C307.872 102.433 305.572 103.4 302.839 103.4H297.639Z" fill="white"/>
<path d="M16.2 80C13.7334 80 11.4667 79.4333 9.40005 78.3C7.40005 77.1 5.80005 75.5 4.60005 73.5C3.40005 71.5 2.80005 69.2333 2.80005 66.7V64.5C2.80005 62.1 3.36672 59.9 4.50005 57.9C5.70005 55.9 7.26672 54.3 9.20005 53.1C11.1334 51.8333 13.3 51.2 15.7 51.2V30.3C13.2334 30.2333 11.0334 29.6 9.10005 28.4C7.16672 27.2 5.63338 25.6333 4.50005 23.7C3.36672 21.7667 2.80005 19.6667 2.80005 17.4V15.2C2.80005 12.7333 3.36672 10.5333 4.50005 8.6C5.70005 6.66666 7.26672 5.13333 9.20005 3.99999C11.2 2.79999 13.4 2.19999 15.8 2.19999H41C43.4667 2.19999 45.6667 2.79999 47.6 3.99999C49.6001 5.13333 51.1667 6.66666 52.3 8.6C53.5 10.5333 54.1 12.7333 54.1 15.2V17.4C54.1 19.6667 53.5334 21.7667 52.4001 23.7C51.3334 25.6333 49.8 27.2 47.8 28.4C45.8667 29.6 43.6 30.2333 41 30.3V47.2C41 47.6 40.8001 47.8 40.4001 47.8C40.0001 47.8 39.8001 47.6 39.8001 47.2V29.7C39.8001 29.3 39.9667 29.1 40.3001 29.1C43.9667 29.1 46.9667 27.9667 49.3001 25.7C51.7001 23.4333 52.9001 20.6667 52.9001 17.4V15.2C52.9001 13 52.3667 11 51.3 9.2C50.2334 7.4 48.8001 6 47.0001 4.99999C45.2001 3.93333 43.2 3.4 41 3.4H15.8C12.5334 3.4 9.73338 4.53333 7.40005 6.79999C5.13338 9.06666 4.00005 11.8667 4.00005 15.2V17.4C4.00005 20.6667 5.16672 23.4333 7.50005 25.7C9.83338 27.9667 12.7667 29.1 16.3 29.1C16.7 29.1 16.9001 29.3 16.9001 29.7V51.8C16.9001 52.1333 16.7 52.3 16.3 52.3C14.0334 52.3 11.9667 52.8667 10.1 54C8.23338 55.0667 6.73338 56.5333 5.60005 58.4C4.53338 60.2 4.00005 62.2333 4.00005 64.5V66.7C4.00005 70.1667 5.16672 73.0667 7.50005 75.4C9.90005 77.6667 12.8 78.8 16.2 78.8H40.9001C44.3667 78.8 47.2667 77.6667 49.6001 75.4C52.0001 73.0667 53.2001 70.1667 53.2001 66.7V65.5C53.2001 61.5667 51.9667 58.3667 49.5001 55.9C47.1001 53.4333 43.9667 52.1667 40.1001 52.1C39.2334 52.1 38.3001 52.2667 37.3001 52.6C36.3667 52.9333 35.4667 53.5 34.6 54.3C34.2 54.5667 33.8667 54.5667 33.6001 54.3C33.3334 54.0333 33.3667 53.7333 33.7001 53.4C34.5001 52.6 35.5 52 36.7001 51.6C37.9667 51.1333 39.1001 50.9 40.1001 50.9C42.9001 50.9 45.3667 51.5333 47.5 52.8C49.6334 54.0667 51.3001 55.8 52.5001 58C53.7667 60.2 54.4001 62.7 54.4001 65.5V66.7C54.4001 69.2333 53.8001 71.5 52.6001 73.5C51.4001 75.5 49.7667 77.1 47.7001 78.3C45.7001 79.4333 43.4334 80 40.9001 80H16.2Z" stroke="white" stroke-width="4" mask="url(#path-1-outside-1_23_2)"/>
<path d="M101.327 81C97.4599 81 94.2599 80.2667 91.7266 78.8C89.1933 77.3333 87.4599 75.5 86.5266 73.3C85.9266 75.2333 84.8266 76.8333 83.2266 78.1C81.6933 79.3667 79.9266 80 77.9266 80H70.3266C67.8599 80 65.7266 79.1 63.9266 77.3C62.1266 75.4333 61.2266 73.1333 61.2266 70.4V11.9C61.2266 9.16666 62.1266 6.86666 63.9266 4.99999C65.7933 3.13333 68.2599 2.19999 71.3266 2.19999H76.7266C79.8599 2.19999 82.3266 3.16666 84.1266 5.1C85.9266 7.03333 86.8266 9.3 86.8266 11.9V24.1C86.8266 24.4333 86.6266 24.6 86.2266 24.6C85.8266 24.6 85.6266 24.4333 85.6266 24.1V11.9C85.6266 9.56666 84.8266 7.56666 83.2266 5.89999C81.6266 4.23333 79.4599 3.4 76.7266 3.4H71.3266C68.6599 3.4 66.4933 4.23333 64.8266 5.89999C63.2266 7.56666 62.4266 9.56666 62.4266 11.9V70.4C62.4266 72.8 63.1933 74.8 64.7266 76.4C66.2599 78 68.1266 78.8 70.3266 78.8H77.9266C80.1266 78.8 81.9599 78 83.4266 76.4C84.9599 74.7333 85.7266 72.7333 85.7266 70.4C85.7266 70 85.9266 69.8 86.3266 69.8C86.7933 69.8 87.0266 70 87.0266 70.4C87.0266 72.7333 88.2599 74.9 90.7266 76.9C93.1933 78.8333 96.7266 79.8 101.327 79.8C104.927 79.8 107.827 79.0667 110.027 77.6C112.293 76.0667 113.993 74.1 115.127 71.7C116.327 69.3 117.127 66.7333 117.527 64C117.993 61.2 118.227 58.5 118.227 55.9V53.9C118.227 50.1 117.627 46.5 116.427 43.1C115.293 39.6333 113.427 36.8333 110.827 34.7C108.227 32.5 104.793 31.4 100.527 31.4C97.1266 31.4 94.1599 32.0667 91.6266 33.4C89.0933 34.6667 87.0933 36.3667 85.6266 38.5C84.1599 40.6333 83.2599 42.9667 82.9266 45.5C82.9266 45.8333 82.7266 46 82.3266 46C81.9266 46 81.7266 45.8 81.7266 45.4C82.0599 42.6667 83.0266 40.1667 84.6266 37.9C86.2266 35.5667 88.3599 33.7 91.0266 32.3C93.7599 30.9 96.9266 30.2 100.527 30.2C104.993 30.2 108.593 31.3333 111.327 33.6C114.127 35.8667 116.16 38.8 117.427 42.4C118.76 46 119.427 49.8333 119.427 53.9V55.9C119.427 58.5 119.193 61.2667 118.727 64.2C118.26 67.1333 117.393 69.8667 116.127 72.4C114.927 74.9333 113.127 77 110.727 78.6C108.327 80.2 105.193 81 101.327 81Z" stroke="white" stroke-width="4" mask="url(#path-1-outside-1_23_2)"/>
<path d="M135.661 80C133.128 80 130.961 79.0667 129.161 77.2C127.361 75.3333 126.461 73.0667 126.461 70.4V11.9C126.461 9.16666 127.394 6.86666 129.261 4.99999C131.128 3.06666 133.594 2.1 136.661 2.1H142.061C145.061 2.1 147.461 3.06666 149.261 4.99999C151.128 6.86666 152.061 9.16666 152.061 11.9V70.4C152.061 73.0667 151.194 75.3333 149.461 77.2C147.794 79.0667 145.728 80 143.261 80H135.661ZM127.661 70.4C127.661 72.7333 128.428 74.7333 129.961 76.4C131.494 78 133.394 78.8 135.661 78.8H143.261C145.394 78.8 147.194 78 148.661 76.4C150.128 74.7333 150.861 72.7333 150.861 70.4V11.9C150.861 9.5 150.061 7.46666 148.461 5.8C146.861 4.13333 144.728 3.3 142.061 3.3H136.661C133.928 3.3 131.728 4.13333 130.061 5.8C128.461 7.46666 127.661 9.5 127.661 11.9V70.4Z" stroke="white" stroke-width="4" mask="url(#path-1-outside-1_23_2)"/>
<path d="M172.855 27.7C169.188 27.7 166.155 26.5 163.755 24.1C161.355 21.7 160.155 18.6667 160.155 15C160.155 11.2667 161.355 8.2 163.755 5.8C166.155 3.39999 169.188 2.19999 172.855 2.19999C176.521 2.19999 179.555 3.39999 181.955 5.8C184.355 8.2 185.555 11.2667 185.555 15C185.555 18.6667 184.355 21.7 181.955 24.1C179.555 26.5 176.521 27.7 172.855 27.7ZM161.355 15C161.355 18.4 162.421 21.1667 164.555 23.3C166.688 25.4333 169.455 26.5 172.855 26.5C176.255 26.5 179.021 25.4333 181.155 23.3C183.288 21.1667 184.355 18.4 184.355 15C184.355 11.6 183.288 8.83333 181.155 6.7C179.021 4.5 176.255 3.4 172.855 3.4C169.455 3.4 166.688 4.5 164.555 6.7C162.421 8.83333 161.355 11.6 161.355 15ZM169.255 80C166.721 80 164.555 79.0667 162.755 77.2C160.955 75.3333 160.055 73.0667 160.055 70.4V41C160.055 38.2667 160.988 35.9667 162.855 34.1C164.721 32.1667 167.188 31.2 170.255 31.2H175.655C178.655 31.2 181.055 32.1667 182.855 34.1C184.721 35.9667 185.655 38.2667 185.655 41V70.4C185.655 73.0667 184.788 75.3333 183.055 77.2C181.388 79.0667 179.321 80 176.855 80H169.255ZM161.255 70.4C161.255 72.7333 162.021 74.7333 163.555 76.4C165.088 78 166.988 78.8 169.255 78.8H176.855C178.988 78.8 180.788 78 182.255 76.4C183.721 74.7333 184.455 72.7333 184.455 70.4V41C184.455 38.6 183.655 36.5667 182.055 34.9C180.455 33.2333 178.321 32.4 175.655 32.4H170.255C167.521 32.4 165.321 33.2333 163.655 34.9C162.055 36.5667 161.255 38.6 161.255 41V70.4Z" stroke="white" stroke-width="4" mask="url(#path-1-outside-1_23_2)"/>
<path d="M203.448 80C200.782 80 198.482 79.0667 196.548 77.2C194.615 75.2667 193.648 72.9667 193.648 70.3V41.2C193.648 38.4667 194.615 36.1333 196.548 34.2C198.482 32.2 200.782 31.2 203.448 31.2H208.248C210.782 31.2 212.948 32.0333 214.748 33.7C216.615 35.3667 217.682 37.5 217.948 40.1C218.948 37.3 220.748 34.9667 223.348 33.1C225.948 31.1667 229.082 30.2 232.748 30.2C235.948 30.2 238.748 31 241.148 32.6C243.615 34.1333 245.548 36.2 246.948 38.8C248.348 41.4 249.048 44.3333 249.048 47.6V70.4C249.048 73.0667 248.082 75.3333 246.148 77.2C244.282 79.0667 241.982 80 239.248 80C238.782 80 238.548 79.8 238.548 79.4C238.548 79 238.782 78.8 239.248 78.8C241.648 78.8 243.682 78 245.348 76.4C247.015 74.7333 247.848 72.7333 247.848 70.4V47.6C247.848 44.6 247.215 41.8667 245.948 39.4C244.682 36.9333 242.915 35 240.648 33.6C238.382 32.1333 235.748 31.4 232.748 31.4C229.815 31.4 227.282 32.0333 225.148 33.3C223.015 34.5 221.348 36.1 220.148 38.1C218.948 40.1 218.248 42.2667 218.048 44.6C218.048 45 217.848 45.2 217.448 45.2C217.048 45.2 216.848 45 216.848 44.6V41.2C216.848 38.6667 216.015 36.5667 214.348 34.9C212.682 33.2333 210.648 32.4 208.248 32.4H203.448C201.048 32.4 199.015 33.3 197.348 35.1C195.682 36.8333 194.848 38.8667 194.848 41.2V70.3C194.848 72.6333 195.682 74.6333 197.348 76.3C199.015 77.9667 201.048 78.8 203.448 78.8H208.648C211.048 78.8 213.048 77.9667 214.648 76.3C216.315 74.6333 217.148 72.6333 217.148 70.3C217.148 69.9 217.348 69.7 217.748 69.7C218.148 69.7 218.348 69.9 218.348 70.3C218.348 72.9667 217.415 75.2667 215.548 77.2C213.682 79.0667 211.382 80 208.648 80H203.448Z" stroke="white" stroke-width="4" mask="url(#path-1-outside-1_23_2)"/>
<path d="M297.639 103.4C294.972 103.4 292.672 102.433 290.739 100.5C288.806 98.6333 287.839 96.3667 287.839 93.7V85.3C287.839 84.9 288.039 84.7 288.439 84.7C288.839 84.7 289.039 84.9 289.039 85.3V93.7C289.039 96.1 289.872 98.1 291.539 99.7C293.206 101.367 295.239 102.2 297.639 102.2H302.839C305.239 102.2 307.272 101.367 308.939 99.7C310.606 98.1 311.439 96.1 311.439 93.7V41C311.439 38.6 310.606 36.5667 308.939 34.9C307.272 33.2333 305.239 32.4 302.839 32.4H297.639C295.172 32.4 293.106 33.2 291.439 34.8C289.839 36.4 289.039 38.5333 289.039 41.2V41.7C289.039 42.1 288.839 42.3 288.439 42.3C288.172 42.3 287.972 42.1 287.839 41.7C286.706 38.3667 285.172 35.8333 283.239 34.1C281.372 32.3 278.472 31.4 274.539 31.4C268.872 31.4 264.472 33.5 261.339 37.7C258.272 41.8333 256.739 47.6 256.739 55C256.739 59.2667 257.406 63.3 258.739 67.1C260.139 70.8333 262.306 73.9 265.239 76.3C268.239 78.6333 272.139 79.8 276.939 79.8C280.739 79.8 283.772 79.2 286.039 78C288.306 76.7333 289.939 75.0333 290.939 72.9C292.006 70.7667 292.539 68.4333 292.539 65.9C292.539 65.5 292.739 65.3 293.139 65.3C293.539 65.3 293.739 65.5 293.739 65.9C293.739 68.7 293.172 71.2333 292.039 73.5C290.906 75.7667 289.106 77.6 286.639 79C284.172 80.3333 280.939 81 276.939 81C271.872 81 267.772 79.7667 264.639 77.3C261.506 74.7667 259.206 71.5333 257.739 67.6C256.272 63.6 255.539 59.4 255.539 55C255.539 47.2667 257.206 41.2 260.539 36.8C263.872 32.4 268.506 30.2 274.439 30.2C277.906 30.2 280.772 30.9 283.039 32.3C285.306 33.7 286.972 35.9667 288.039 39.1C288.372 36.6333 289.472 34.7 291.339 33.3C293.272 31.9 295.372 31.2 297.639 31.2H302.839C305.572 31.2 307.872 32.1667 309.739 34.1C311.672 35.9667 312.639 38.2667 312.639 41V93.7C312.639 96.3667 311.672 98.6333 309.739 100.5C307.872 102.433 305.572 103.4 302.839 103.4H297.639Z" stroke="white" stroke-width="4" mask="url(#path-1-outside-1_23_2)"/>
</svg>
