<svg width="97" height="112" viewBox="0 0 97 112" fill="none" xmlns="http://www.w3.org/2000/svg">
<path d="M3.225 14.66C3.145 14.66 3.055 14.595 2.955 14.465C2.855 14.335 2.81 14.21 2.82 14.09C2.83 13.93 2.875 13.7 2.955 13.4C3.035 13.1 3.125 12.795 3.225 12.485C3.325 12.175 3.415 11.93 3.495 11.75C3.535 11.59 3.57 11.45 3.6 11.33C3.64 11.2 3.665 11.115 3.675 11.075C3.705 11.035 3.75 10.93 3.81 10.76C3.88 10.59 3.935 10.425 3.975 10.265C3.995 10.185 4.035 10.035 4.095 9.815C4.165 9.585 4.245 9.32 4.335 9.02C4.435 8.72 4.53 8.425 4.62 8.135C4.72 7.845 4.805 7.59 4.875 7.37C4.945 7.15 4.99 7.005 5.01 6.935C5.09 6.815 5.15 6.7 5.19 6.59C5.23 6.48 5.255 6.405 5.265 6.365C5.325 6.325 5.36 6.275 5.37 6.215C5.38 6.145 5.385 6.09 5.385 6.05C5.385 6 5.4 5.96 5.43 5.93C5.47 5.9 5.49 5.865 5.49 5.825C5.53 5.795 5.555 5.75 5.565 5.69C5.575 5.62 5.605 5.56 5.655 5.51L5.73 5.255L6.615 5.24C6.595 5.36 6.565 5.51 6.525 5.69C6.485 5.86 6.39 6.09 6.24 6.38C6.19 6.58 6.13 6.76 6.06 6.92C6 7.08 5.975 7.185 5.985 7.235C5.965 7.255 5.92 7.355 5.85 7.535C5.79 7.715 5.715 7.935 5.625 8.195C5.545 8.455 5.46 8.715 5.37 8.975C5.29 9.235 5.215 9.465 5.145 9.665C5.085 9.855 5.045 9.975 5.025 10.025C4.945 10.185 4.855 10.42 4.755 10.73C4.655 11.04 4.505 11.46 4.305 11.99C4.225 12.15 4.125 12.39 4.005 12.71C3.895 13.03 3.805 13.32 3.735 13.58C3.625 13.97 3.545 14.24 3.495 14.39C3.455 14.55 3.42 14.635 3.39 14.645C3.36 14.665 3.305 14.67 3.225 14.66ZM3.345 5.72C3.065 5.73 2.855 5.715 2.715 5.675C2.585 5.635 2.54 5.535 2.58 5.375C2.61 5.255 2.675 5.165 2.775 5.105C2.875 5.045 3.02 5 3.21 4.97C3.32 4.95 3.46 4.925 3.63 4.895C3.81 4.865 3.98 4.835 4.14 4.805C4.47 4.765 4.74 4.73 4.95 4.7C5.17 4.67 5.395 4.645 5.625 4.625C5.855 4.605 6.145 4.585 6.495 4.565C6.785 4.545 7.03 4.53 7.23 4.52C7.44 4.5 7.545 4.49 7.545 4.49C7.575 4.49 7.68 4.5 7.86 4.52C8.04 4.54 8.235 4.565 8.445 4.595C8.655 4.625 8.81 4.66 8.91 4.7C9.14 4.75 9.305 4.82 9.405 4.91C9.515 5 9.59 5.13 9.63 5.3C9.66 5.42 9.66 5.495 9.63 5.525C9.6 5.545 9.545 5.575 9.465 5.615C9.235 5.685 9.065 5.72 8.955 5.72C8.845 5.72 8.72 5.695 8.58 5.645C8.53 5.595 8.47 5.55 8.4 5.51C8.34 5.47 8.23 5.44 8.07 5.42C7.92 5.39 7.68 5.365 7.35 5.345C7.07 5.375 6.825 5.39 6.615 5.39C6.405 5.39 6.3 5.415 6.3 5.465L5.415 5.51L4.68 5.585C4.58 5.595 4.44 5.61 4.26 5.63C4.08 5.64 3.905 5.655 3.735 5.675C3.565 5.685 3.435 5.7 3.345 5.72ZM7.12746 13.46C7.08746 13.38 7.03746 13.32 6.97746 13.28C6.91746 13.23 6.88746 13.185 6.88746 13.145C6.88746 13.105 6.88246 13.065 6.87246 13.025C6.87246 12.975 6.85246 12.93 6.81246 12.89C6.76246 12.83 6.76746 12.695 6.82746 12.485C6.88746 12.265 6.98746 12 7.12746 11.69C7.26746 11.37 7.43246 11.035 7.62246 10.685C7.70246 10.605 7.78246 10.5 7.86246 10.37C7.94246 10.24 8.00246 10.155 8.04246 10.115C8.04246 10.075 8.05746 10.04 8.08746 10.01C8.11746 9.97 8.15246 9.95 8.19246 9.95V9.86C8.19246 9.81 8.23746 9.725 8.32746 9.605C8.42746 9.485 8.54746 9.355 8.68746 9.215C8.82746 9.065 8.97246 8.925 9.12246 8.795C9.27246 8.655 9.39746 8.555 9.49746 8.495C9.70746 8.355 9.92246 8.27 10.1425 8.24C10.3725 8.21 10.5675 8.26 10.7275 8.39C10.7575 8.42 10.8075 8.47 10.8775 8.54C10.9475 8.61 11.0275 8.69 11.1175 8.78C11.2175 8.86 11.3175 8.945 11.4175 9.035L11.9725 9.53L11.7025 10.28C11.5725 10.68 11.5375 11.03 11.5975 11.33C11.6675 11.63 11.7675 11.89 11.8975 12.11C11.9475 12.22 12.0475 12.325 12.1975 12.425C12.3575 12.525 12.5075 12.585 12.6475 12.605C12.7275 12.615 12.8025 12.645 12.8725 12.695C12.9425 12.745 12.9775 12.825 12.9775 12.935C12.9775 13.035 12.9575 13.115 12.9175 13.175C12.8775 13.235 12.8075 13.275 12.7075 13.295C12.3775 13.335 12.0675 13.255 11.7775 13.055C11.4975 12.855 11.2375 12.525 10.9975 12.065C10.9575 12.005 10.9025 11.895 10.8325 11.735C10.7725 11.565 10.7375 11.455 10.7275 11.405C10.6875 11.455 10.6125 11.55 10.5025 11.69C10.3925 11.82 10.3075 11.915 10.2475 11.975C9.53746 12.695 8.92246 13.18 8.40246 13.43C7.89246 13.67 7.46746 13.68 7.12746 13.46ZM7.66746 12.62C7.66746 12.69 7.77246 12.69 7.98246 12.62C8.20246 12.54 8.43746 12.4 8.68746 12.2C9.02746 11.91 9.36746 11.59 9.70746 11.24C10.0575 10.89 10.3375 10.565 10.5475 10.265L10.8775 9.725C10.7775 9.495 10.6675 9.34 10.5475 9.26C10.4375 9.17 10.3425 9.125 10.2625 9.125C10.1325 9.125 9.93746 9.245 9.67746 9.485C9.42746 9.725 9.15746 10.045 8.86746 10.445C8.57746 10.845 8.30246 11.285 8.04246 11.765C7.94246 11.965 7.85246 12.16 7.77246 12.35C7.70246 12.53 7.66746 12.62 7.66746 12.62ZM12.9853 17.36C12.9453 17.36 12.8953 17.36 12.8353 17.36C12.7753 17.37 12.7203 17.33 12.6703 17.24C12.6303 17.19 12.6053 17.115 12.5953 17.015C12.5953 16.915 12.6203 16.735 12.6703 16.475C12.7203 16.305 12.7603 16.135 12.7903 15.965C12.8203 15.805 12.8353 15.685 12.8353 15.605C12.8353 15.565 12.8453 15.485 12.8653 15.365C12.8953 15.255 12.9103 15.175 12.9103 15.125C12.9603 15.045 13.0003 14.935 13.0303 14.795C13.0603 14.655 13.0753 14.53 13.0753 14.42C13.0753 14.3 13.1353 14.19 13.2553 14.09C13.2553 14.01 13.2703 13.91 13.3003 13.79C13.3403 13.67 13.3603 13.59 13.3603 13.55C13.3903 13.41 13.4553 13.165 13.5553 12.815C13.6653 12.455 13.7953 12.05 13.9453 11.6C14.1053 11.15 14.2603 10.71 14.4103 10.28C14.5603 9.85 14.6953 9.485 14.8153 9.185C14.9353 8.905 15.0153 8.665 15.0553 8.465C15.1053 8.255 15.1303 8.1 15.1303 8C15.1303 7.96 15.1403 7.93 15.1603 7.91C15.1803 7.88 15.2253 7.825 15.2953 7.745C15.3953 7.645 15.4803 7.615 15.5503 7.655C15.6303 7.695 15.7253 7.755 15.8353 7.835C15.9153 7.965 15.9703 8.075 16.0003 8.165C16.0403 8.255 16.0403 8.41 16.0003 8.63C16.0003 8.78 15.9753 8.91 15.9253 9.02C15.8753 9.13 15.8303 9.215 15.7903 9.275C15.7503 9.325 15.7403 9.345 15.7603 9.335C16.1703 9.145 16.5303 9.045 16.8403 9.035C17.1603 9.015 17.4253 9.07 17.6353 9.2C17.8553 9.32 18.0203 9.49 18.1303 9.71C18.2403 9.93 18.2953 10.185 18.2953 10.475C18.2953 10.595 18.2703 10.74 18.2203 10.91C18.1703 11.07 18.1053 11.22 18.0253 11.36C17.9553 11.49 17.8903 11.585 17.8303 11.645C17.7903 11.645 17.7503 11.68 17.7103 11.75C17.6703 11.81 17.6303 11.88 17.5903 11.96C17.5103 12.06 17.3803 12.175 17.2003 12.305C17.0303 12.425 16.8603 12.525 16.6903 12.605C16.5203 12.675 16.3953 12.695 16.3153 12.665C16.3153 12.665 16.3003 12.67 16.2703 12.68C16.2503 12.68 16.2403 12.705 16.2403 12.755C16.2403 12.775 16.1603 12.82 16.0003 12.89C15.8403 12.95 15.6553 13.01 15.4453 13.07C15.2353 13.12 15.0503 13.145 14.8903 13.145C14.6803 13.145 14.5303 13.105 14.4403 13.025C14.4203 13.045 14.3953 13.075 14.3653 13.115C14.3453 13.155 14.3353 13.19 14.3353 13.22C14.3353 13.28 14.3103 13.395 14.2603 13.565C14.2203 13.725 14.1703 13.88 14.1103 14.03C14.0503 14.18 13.9953 14.255 13.9453 14.255C13.9453 14.255 13.9353 14.27 13.9153 14.3C13.8953 14.33 13.9053 14.37 13.9453 14.42C13.9453 14.42 13.9403 14.475 13.9303 14.585C13.9303 14.705 13.9053 14.805 13.8553 14.885C13.8553 14.965 13.8403 15.085 13.8103 15.245C13.7803 15.405 13.7453 15.525 13.7053 15.605C13.7053 15.725 13.6853 15.84 13.6453 15.95C13.6153 16.07 13.5803 16.13 13.5403 16.13C13.5003 16.14 13.4753 16.2 13.4653 16.31C13.4553 16.43 13.4503 16.515 13.4503 16.565C13.4403 16.815 13.3903 17.01 13.3003 17.15C13.2103 17.29 13.1053 17.36 12.9853 17.36ZM14.8003 12.35C14.8803 12.35 15.0453 12.315 15.2953 12.245C15.5453 12.175 15.8003 12.09 16.0603 11.99C16.3303 11.88 16.5303 11.77 16.6603 11.66C16.9203 11.43 17.1203 11.17 17.2603 10.88C17.4103 10.58 17.4003 10.295 17.2303 10.025C17.1503 9.885 17.0053 9.83 16.7953 9.86C16.5853 9.88 16.3553 9.96 16.1053 10.1C15.8553 10.24 15.6203 10.415 15.4003 10.625C15.2803 10.755 15.1703 10.915 15.0703 11.105C14.9703 11.295 14.8853 11.485 14.8153 11.675C14.7553 11.865 14.7203 12.025 14.7103 12.155C14.7003 12.285 14.7303 12.35 14.8003 12.35ZM27.5971 13.535C27.3471 13.655 27.1221 13.69 26.9221 13.64C26.7221 13.58 26.5621 13.445 26.4421 13.235C26.3321 13.025 26.2771 12.76 26.2771 12.44C26.2771 12.33 26.2921 12.165 26.3221 11.945C26.3621 11.725 26.4071 11.495 26.4571 11.255C26.5071 11.005 26.5621 10.79 26.6221 10.61C26.6521 10.52 26.6721 10.45 26.6821 10.4C26.7021 10.35 26.6921 10.325 26.6521 10.325C26.6121 10.325 26.5621 10.35 26.5021 10.4C26.4521 10.45 26.4121 10.49 26.3821 10.52C26.1621 10.7 25.9321 10.92 25.6921 11.18C25.4621 11.44 25.2471 11.705 25.0471 11.975C24.8471 12.235 24.6821 12.475 24.5521 12.695C24.4321 12.915 24.3721 13.075 24.3721 13.175C24.3721 13.325 24.2971 13.43 24.1471 13.49C23.9971 13.55 23.8671 13.545 23.7571 13.475C23.5671 13.365 23.4471 13.235 23.3971 13.085C23.3571 12.925 23.3521 12.66 23.3821 12.29C23.4121 11.82 23.4521 11.4 23.5021 11.03C23.5521 10.66 23.6321 10.26 23.7421 9.83C23.8621 9.39 24.0171 8.855 24.2071 8.225C24.3371 7.875 24.4571 7.545 24.5671 7.235C24.6771 6.915 24.7721 6.645 24.8521 6.425C24.9421 6.205 24.9971 6.07 25.0171 6.02C25.0671 5.97 25.1321 5.85 25.2121 5.66C25.2921 5.46 25.3621 5.26 25.4221 5.06C25.4921 4.86 25.5271 4.74 25.5271 4.7C25.5271 4.62 25.5421 4.55 25.5721 4.49C25.6021 4.42 25.6371 4.365 25.6771 4.325C25.7171 4.285 25.7521 4.25 25.7821 4.22C25.8121 4.19 25.8271 4.175 25.8271 4.175C25.8771 4.175 25.9371 4.19 26.0071 4.22C26.0871 4.25 26.1621 4.295 26.2321 4.355C26.3021 4.405 26.3471 4.47 26.3671 4.55C26.4371 4.69 26.4721 4.835 26.4721 4.985C26.4721 5.125 26.4271 5.3 26.3371 5.51C26.2571 5.72 26.1171 6.01 25.9171 6.38C25.7571 6.69 25.6121 7.01 25.4821 7.34C25.3521 7.67 25.2271 8.015 25.1071 8.375C25.0571 8.525 24.9871 8.735 24.8971 9.005C24.8171 9.275 24.7321 9.555 24.6421 9.845C24.5621 10.135 24.4921 10.395 24.4321 10.625C24.3821 10.845 24.3571 10.985 24.3571 11.045C24.3571 11.115 24.3971 11.15 24.4771 11.15C24.5571 11.14 24.6371 11.08 24.7171 10.97C24.7571 10.89 24.8421 10.79 24.9721 10.67C25.1021 10.55 25.2071 10.455 25.2871 10.385C25.3671 10.315 25.4771 10.215 25.6171 10.085C25.7571 9.955 25.9071 9.825 26.0671 9.695C26.2271 9.555 26.3771 9.44 26.5171 9.35C26.6571 9.25 26.7671 9.2 26.8471 9.2C26.9771 9.2 27.0971 9.25 27.2071 9.35C27.3171 9.44 27.3921 9.54 27.4321 9.65C27.4621 9.68 27.4921 9.72 27.5221 9.77C27.5521 9.81 27.5721 9.84 27.5821 9.86C27.6321 9.9 27.6321 10.075 27.5821 10.385C27.5421 10.685 27.4421 11.075 27.2821 11.555C27.1921 11.925 27.1171 12.24 27.0571 12.5C27.0071 12.75 27.0221 12.875 27.1021 12.875C27.1021 12.875 27.1521 12.845 27.2521 12.785C27.3621 12.725 27.4771 12.66 27.5971 12.59C27.8871 12.4 28.1371 12.29 28.3471 12.26C28.5671 12.22 28.6771 12.255 28.6771 12.365C28.6771 12.405 28.6621 12.445 28.6321 12.485C28.6021 12.515 28.5871 12.55 28.5871 12.59C28.5871 12.59 28.5871 12.595 28.5871 12.605C28.5871 12.605 28.5871 12.625 28.5871 12.665C28.5871 12.685 28.5221 12.765 28.3921 12.905C28.2621 13.035 28.1171 13.17 27.9571 13.31C27.8071 13.44 27.6871 13.515 27.5971 13.535ZM31.1236 14.045C30.6836 14.045 30.3236 13.88 30.0436 13.55C29.7636 13.21 29.6286 12.79 29.6386 12.29C29.6586 11.93 29.7286 11.545 29.8486 11.135C29.9786 10.715 30.1486 10.315 30.3586 9.935C30.5686 9.545 30.7986 9.205 31.0486 8.915C31.2986 8.625 31.5586 8.42 31.8286 8.3C31.9286 8.25 32.0336 8.21 32.1436 8.18C32.2636 8.15 32.3836 8.135 32.5036 8.135C32.6136 8.135 32.7286 8.155 32.8486 8.195C32.9686 8.225 33.0686 8.26 33.1486 8.3C33.3186 8.37 33.4486 8.455 33.5386 8.555C33.6286 8.655 33.7086 8.81 33.7786 9.02C33.8086 9.21 33.8236 9.345 33.8236 9.425C33.8236 9.505 33.7986 9.625 33.7486 9.785C33.6286 10.145 33.4736 10.455 33.2836 10.715C33.0936 10.975 32.8386 11.195 32.5186 11.375C32.4386 11.425 32.3436 11.465 32.2336 11.495C32.1336 11.515 32.0286 11.525 31.9186 11.525C31.7186 11.525 31.5236 11.49 31.3336 11.42C31.1536 11.34 31.0086 11.225 30.8986 11.075L30.7936 10.955L30.7486 11.075C30.6486 11.345 30.5686 11.595 30.5086 11.825C30.4586 12.055 30.4336 12.265 30.4336 12.455C30.4336 12.575 30.4436 12.69 30.4636 12.8C30.4936 12.91 30.5336 13.005 30.5836 13.085C30.6236 13.145 30.6886 13.19 30.7786 13.22C30.8786 13.24 30.9836 13.25 31.0936 13.25C31.1636 13.25 31.2336 13.25 31.3036 13.25C31.3836 13.24 31.4586 13.22 31.5286 13.19C31.6986 13.13 31.8336 13.065 31.9336 12.995C32.0436 12.925 32.1536 12.85 32.2636 12.77L32.3236 12.74H32.3086C32.4286 12.68 32.5336 12.62 32.6236 12.56C32.7236 12.5 32.7736 12.47 32.7736 12.47C32.8136 12.47 32.8536 12.445 32.8936 12.395C32.9736 12.355 33.0736 12.37 33.1936 12.44C33.3236 12.51 33.3886 12.6 33.3886 12.71C33.3786 12.76 33.3336 12.84 33.2536 12.95C33.1736 13.05 33.0836 13.145 32.9836 13.235C32.8936 13.325 32.8186 13.375 32.7586 13.385C32.7486 13.395 32.7136 13.415 32.6536 13.445C32.5936 13.465 32.5536 13.485 32.5336 13.505H32.5486C32.4586 13.625 32.3686 13.685 32.2786 13.685H32.1586C32.1186 13.755 31.9886 13.835 31.7686 13.925C31.5486 14.005 31.3336 14.045 31.1236 14.045ZM31.7986 10.745C31.9786 10.745 32.1336 10.695 32.2636 10.595C32.4036 10.485 32.5236 10.365 32.6236 10.235C32.8236 9.965 32.9386 9.705 32.9686 9.455C33.0086 9.195 32.9786 9.015 32.8786 8.915C32.8186 8.885 32.7636 8.87 32.7136 8.87C32.6736 8.86 32.5886 8.875 32.4586 8.915C32.3686 8.935 32.2436 9.01 32.0836 9.14C31.9236 9.27 31.7636 9.415 31.6036 9.575C31.4536 9.735 31.3386 9.87 31.2586 9.98L31.0636 10.295C31.1436 10.265 31.2186 10.25 31.2886 10.25C31.3686 10.24 31.4136 10.245 31.4236 10.265C31.4236 10.355 31.4386 10.44 31.4686 10.52C31.5086 10.59 31.5536 10.645 31.6036 10.685C31.6636 10.725 31.7286 10.745 31.7986 10.745ZM35.3115 13.655C35.2615 13.755 35.1865 13.785 35.0865 13.745C34.9965 13.705 34.9215 13.665 34.8615 13.625C34.7915 13.625 34.7315 13.605 34.6815 13.565C34.6315 13.525 34.5965 13.465 34.5765 13.385C34.5565 13.325 34.5515 13.255 34.5615 13.175C34.5715 13.085 34.5915 12.985 34.6215 12.875C34.6615 12.755 34.7015 12.625 34.7415 12.485C34.8215 12.155 34.8765 11.915 34.9065 11.765C34.9365 11.615 34.9665 11.485 34.9965 11.375C35.0265 11.265 35.0665 11.105 35.1165 10.895C35.1965 10.695 35.2615 10.5 35.3115 10.31C35.3615 10.12 35.4365 9.93 35.5365 9.74C35.6065 9.48 35.6915 9.235 35.7915 9.005C35.9015 8.765 36.0065 8.565 36.1065 8.405C36.1265 8.375 36.1615 8.335 36.2115 8.285C36.2715 8.235 36.3215 8.21 36.3615 8.21C36.4415 8.13 36.5115 8.1 36.5715 8.12C36.6415 8.13 36.7265 8.175 36.8265 8.255C36.9465 8.385 36.9915 8.535 36.9615 8.705C36.9415 8.875 36.8215 9.125 36.6015 9.455C36.4815 9.765 36.3715 10.035 36.2715 10.265C36.1715 10.485 36.1015 10.695 36.0615 10.895C36.1715 10.735 36.2915 10.59 36.4215 10.46C36.5615 10.32 36.6765 10.205 36.7665 10.115C36.9865 9.895 37.1665 9.735 37.3065 9.635C37.4565 9.535 37.6315 9.42 37.8315 9.29C37.9515 9.21 38.0665 9.14 38.1765 9.08C38.2865 9.01 38.4065 8.96 38.5365 8.93C38.6765 8.9 38.8265 8.9 38.9865 8.93C39.0865 8.92 39.1665 8.95 39.2265 9.02C39.2965 9.09 39.3515 9.185 39.3915 9.305C39.4315 9.425 39.4565 9.565 39.4665 9.725C39.2365 9.675 39.0315 9.685 38.8515 9.755C38.6715 9.815 38.5165 9.89 38.3865 9.98C38.2665 10.07 38.1715 10.14 38.1015 10.19C37.9515 10.29 37.7615 10.425 37.5315 10.595C37.3015 10.755 37.0715 10.95 36.8415 11.18C36.6615 11.38 36.5065 11.55 36.3765 11.69C36.2565 11.83 36.1565 11.955 36.0765 12.065C36.0065 12.175 35.9515 12.29 35.9115 12.41C35.8115 12.64 35.7065 12.89 35.5965 13.16C35.4865 13.43 35.3915 13.595 35.3115 13.655ZM41.0168 13.64C40.6268 13.48 40.3718 13.26 40.2518 12.98C40.1418 12.69 40.1218 12.245 40.1918 11.645C40.2118 11.335 40.2218 11.13 40.2218 11.03C40.2218 10.93 40.1668 10.83 40.0568 10.73C40.0268 10.69 39.9718 10.635 39.8918 10.565C39.8218 10.495 39.7918 10.435 39.8018 10.385C39.7918 10.315 39.7968 10.24 39.8168 10.16C39.8368 10.07 39.8668 10.025 39.9068 10.025C39.9468 10.025 39.9868 10.015 40.0268 9.995C40.0768 9.975 40.1218 9.975 40.1618 9.995C40.2018 9.995 40.2468 10 40.2968 10.01C40.3468 10.02 40.3718 10.045 40.3718 10.085C40.4118 10.155 40.4768 10.165 40.5668 10.115C40.6568 10.055 40.7518 9.925 40.8518 9.725C40.9518 9.565 41.0818 9.405 41.2418 9.245C41.4118 9.085 41.5768 8.94 41.7368 8.81C41.9068 8.67 42.0468 8.57 42.1568 8.51C42.2068 8.49 42.2818 8.465 42.3818 8.435C42.4818 8.405 42.5868 8.38 42.6968 8.36C42.8168 8.34 42.9168 8.335 42.9968 8.345C43.1768 8.355 43.3268 8.405 43.4468 8.495C43.5768 8.585 43.6968 8.69 43.8068 8.81C43.9368 8.9 44.0168 9.02 44.0468 9.17C44.0868 9.32 44.0968 9.48 44.0768 9.65C44.0568 9.82 44.0118 9.975 43.9418 10.115C43.9118 10.215 43.8268 10.335 43.6868 10.475C43.5468 10.615 43.3868 10.75 43.2068 10.88C43.0268 11.01 42.8618 11.105 42.7118 11.165C42.5818 11.195 42.4118 11.22 42.2018 11.24C42.0018 11.26 41.8118 11.27 41.6318 11.27C41.4618 11.26 41.3468 11.24 41.2868 11.21C41.2168 11.17 41.1618 11.225 41.1218 11.375C41.0818 11.525 41.0518 11.74 41.0318 12.02C41.0118 12.24 41.0118 12.4 41.0318 12.5C41.0518 12.6 41.0718 12.67 41.0918 12.71C41.1618 12.78 41.2568 12.87 41.3768 12.98C41.5068 13.08 41.6868 13.095 41.9168 13.025C42.1068 12.975 42.2918 12.845 42.4718 12.635C42.6618 12.425 42.8368 12.255 42.9968 12.125C43.0368 12.055 43.1018 12.015 43.1918 12.005C43.2918 11.985 43.3968 11.99 43.5068 12.02C43.6168 12.09 43.6618 12.175 43.6418 12.275C43.6318 12.365 43.5818 12.505 43.4918 12.695C43.4618 12.765 43.3918 12.855 43.2818 12.965C43.1818 13.065 43.0668 13.17 42.9368 13.28C42.8168 13.38 42.7068 13.46 42.6068 13.52C42.3068 13.68 42.0268 13.765 41.7668 13.775C41.5068 13.775 41.2568 13.73 41.0168 13.64ZM41.9018 10.595C42.1218 10.545 42.2968 10.51 42.4268 10.49C42.5568 10.47 42.6818 10.415 42.8018 10.325C42.9218 10.225 43.0718 10.04 43.2518 9.77C43.2918 9.66 43.3018 9.55 43.2818 9.44C43.2718 9.33 43.2468 9.255 43.2068 9.215C43.1168 9.115 43.0068 9.085 42.8768 9.125C42.7568 9.155 42.6418 9.21 42.5318 9.29C42.4618 9.32 42.3568 9.395 42.2168 9.515C42.0868 9.625 41.9568 9.755 41.8268 9.905C41.6968 10.045 41.5918 10.175 41.5118 10.295C41.4318 10.415 41.4118 10.485 41.4518 10.505C41.4318 10.545 41.4868 10.57 41.6168 10.58C41.7568 10.59 41.8518 10.595 41.9018 10.595ZM49.6625 13.895C49.5525 13.875 49.4375 13.82 49.3175 13.73C49.2075 13.63 49.1075 13.52 49.0175 13.4C48.9375 13.27 48.8825 13.155 48.8525 13.055C48.8525 13.035 48.8375 13.01 48.8075 12.98C48.7875 12.95 48.7775 12.935 48.7775 12.935C48.7375 12.905 48.7125 12.775 48.7025 12.545C48.7025 12.305 48.7175 12.04 48.7475 11.75C48.7775 11.46 48.8125 11.23 48.8525 11.06C48.9025 10.9 48.9775 10.685 49.0775 10.415C49.1775 10.135 49.2625 9.885 49.3325 9.665L49.7375 8.795L49.1375 8.63C49.0675 8.61 49.0075 8.57 48.9575 8.51C48.9175 8.45 48.8975 8.4 48.8975 8.36C48.8975 8.28 48.9425 8.185 49.0325 8.075C49.1225 7.955 49.1875 7.895 49.2275 7.895C49.2775 7.905 49.3675 7.91 49.4975 7.91C49.6375 7.91 49.7725 7.905 49.9025 7.895C50.0325 7.885 50.1125 7.875 50.1425 7.865C50.1825 7.845 50.2225 7.82 50.2625 7.79C50.3025 7.75 50.3325 7.695 50.3525 7.625C50.4025 7.515 50.4475 7.415 50.4875 7.325C50.5275 7.225 50.5825 7.115 50.6525 6.995C50.7225 6.865 50.7775 6.755 50.8175 6.665C50.8675 6.575 50.9425 6.45 51.0425 6.29C51.0925 6.22 51.1475 6.135 51.2075 6.035C51.2675 5.935 51.3425 5.85 51.4325 5.78C51.5225 5.7 51.6125 5.665 51.7025 5.675C51.8025 5.675 51.9275 5.74 52.0775 5.87C52.1575 5.97 52.2025 6.045 52.2125 6.095C52.2225 6.145 52.1825 6.24 52.0925 6.38C52.0125 6.55 51.9175 6.72 51.8075 6.89C51.7075 7.06 51.6125 7.23 51.5225 7.4C51.3625 7.62 51.3325 7.745 51.4325 7.775C51.5325 7.805 51.8125 7.785 52.2725 7.715C52.5625 7.665 52.7725 7.68 52.9025 7.76C53.0325 7.83 53.1075 7.95 53.1275 8.12C53.1575 8.36 53.1325 8.505 53.0525 8.555C52.9725 8.605 52.7425 8.63 52.3625 8.63C52.1225 8.67 51.9175 8.695 51.7475 8.705C51.5775 8.705 51.4525 8.705 51.3725 8.705C51.2425 8.715 51.1575 8.72 51.1175 8.72C51.0775 8.72 51.0175 8.73 50.9375 8.75C50.8575 8.77 50.7975 8.805 50.7575 8.855C50.7275 8.895 50.6925 8.955 50.6525 9.035C50.6125 9.075 50.5525 9.18 50.4725 9.35C50.3925 9.52 50.2925 9.705 50.1725 9.905C50.0325 10.325 49.9125 10.745 49.8125 11.165C49.7125 11.575 49.6325 11.975 49.5725 12.365C49.5325 12.615 49.5375 12.79 49.5875 12.89C49.6375 12.98 49.7675 13.035 49.9775 13.055C50.0875 13.065 50.2625 13.065 50.5025 13.055C50.7525 13.035 50.9475 13.005 51.0875 12.965C51.1975 12.915 51.3125 12.865 51.4325 12.815C51.5525 12.755 51.6625 12.695 51.7625 12.635C51.8525 12.585 51.9425 12.535 52.0325 12.485C52.1225 12.425 52.1675 12.395 52.1675 12.395C52.2175 12.315 52.2725 12.29 52.3325 12.32C52.3925 12.35 52.4425 12.425 52.4825 12.545C52.4825 12.665 52.4575 12.79 52.4075 12.92C52.3575 13.05 52.1725 13.205 51.8525 13.385C51.4025 13.665 50.9875 13.835 50.6075 13.895C50.2375 13.945 49.9225 13.945 49.6625 13.895ZM54.4784 13.775C54.3484 13.775 54.2434 13.75 54.1634 13.7C54.0934 13.65 54.0034 13.58 53.8934 13.49C53.7034 13.29 53.5684 13.1 53.4884 12.92C53.4084 12.73 53.3834 12.55 53.4134 12.38C53.4434 12.3 53.4534 12.225 53.4434 12.155C53.4434 12.075 53.4434 12.035 53.4434 12.035C53.3934 11.985 53.3784 11.955 53.3984 11.945C53.4184 11.925 53.4384 11.895 53.4584 11.855C53.5184 11.855 53.5384 11.8 53.5184 11.69C53.4984 11.61 53.5384 11.435 53.6384 11.165C53.7384 10.895 53.8634 10.64 54.0134 10.4C54.0734 10.3 54.1634 10.17 54.2834 10.01C54.4034 9.84 54.5334 9.675 54.6734 9.515C54.8234 9.345 54.9584 9.21 55.0784 9.11C55.3284 8.9 55.5484 8.745 55.7384 8.645C55.9284 8.545 56.1334 8.47 56.3534 8.42C56.5734 8.37 56.7234 8.345 56.8034 8.345C56.8934 8.345 57.0134 8.425 57.1634 8.585C57.3934 8.685 57.5584 8.805 57.6584 8.945C57.7684 9.085 57.8384 9.29 57.8684 9.56C57.8984 9.86 57.8734 10.205 57.7934 10.595C57.7234 10.975 57.4884 11.45 57.0884 12.02C56.8384 12.38 56.6084 12.65 56.3984 12.83C56.1884 13 55.9384 13.17 55.6484 13.34C55.4384 13.48 55.2484 13.585 55.0784 13.655C54.9084 13.715 54.7084 13.755 54.4784 13.775ZM55.9184 12.185C56.1584 11.915 56.3484 11.66 56.4884 11.42C56.6384 11.18 56.7784 10.875 56.9084 10.505C56.9484 10.395 56.9734 10.26 56.9834 10.1C56.9934 9.93 56.9884 9.775 56.9684 9.635C56.9584 9.485 56.9234 9.4 56.8634 9.38C56.7434 9.31 56.5984 9.29 56.4284 9.32C56.2584 9.34 56.0734 9.435 55.8734 9.605C55.5634 9.865 55.2934 10.19 55.0634 10.58C54.8334 10.96 54.6084 11.395 54.3884 11.885C54.2384 12.245 54.2034 12.535 54.2834 12.755C54.3734 12.965 54.5584 13.04 54.8384 12.98C55.1284 12.91 55.4884 12.645 55.9184 12.185ZM63.7893 13.865C63.5393 13.885 63.2993 13.87 63.0693 13.82C62.8493 13.77 62.6593 13.685 62.4993 13.565C62.3493 13.435 62.2443 13.28 62.1843 13.1C62.1143 12.96 62.0793 12.865 62.0793 12.815C62.0793 12.755 62.1143 12.705 62.1843 12.665C62.2643 12.665 62.3343 12.69 62.3943 12.74C62.4643 12.78 62.5543 12.825 62.6643 12.875C62.8143 13.005 62.9943 13.075 63.2043 13.085C63.4243 13.095 63.6243 13.06 63.8043 12.98C63.9843 12.9 64.0843 12.8 64.1043 12.68C64.1043 12.64 64.0893 12.57 64.0593 12.47C64.0293 12.37 63.9943 12.265 63.9543 12.155C63.6843 11.775 63.4843 11.4 63.3543 11.03C63.2343 10.65 63.1743 10.34 63.1743 10.1C63.1743 9.92 63.2293 9.73 63.3393 9.53C63.4493 9.32 63.5993 9.145 63.7893 9.005C63.9693 8.815 64.1693 8.645 64.3893 8.495C64.6093 8.345 64.8293 8.215 65.0493 8.105C65.2793 7.995 65.4843 7.915 65.6643 7.865C65.7743 7.865 65.9193 7.88 66.0993 7.91C66.2793 7.94 66.4043 7.975 66.4743 8.015C66.5843 8.055 66.6893 8.165 66.7893 8.345C66.8893 8.515 66.9393 8.685 66.9393 8.855C66.9393 8.925 66.9193 9.015 66.8793 9.125C66.8393 9.235 66.7743 9.365 66.6843 9.515C66.6443 9.625 66.5993 9.73 66.5493 9.83C66.4993 9.92 66.4743 9.985 66.4743 10.025C66.4243 10.135 66.3543 10.19 66.2643 10.19C66.1843 10.18 66.0993 10.135 66.0093 10.055C65.9293 9.965 65.8643 9.86 65.8143 9.74C65.7743 9.59 65.7593 9.47 65.7693 9.38C65.7793 9.28 65.8193 9.175 65.8893 9.065C65.9993 8.955 66.0543 8.88 66.0543 8.84C66.0543 8.8 65.9993 8.78 65.8893 8.78C65.8193 8.78 65.6893 8.825 65.4993 8.915C65.3193 8.995 65.1243 9.105 64.9143 9.245C64.7143 9.375 64.5393 9.515 64.3893 9.665C64.1993 9.845 64.0843 9.975 64.0443 10.055C64.0143 10.135 63.9993 10.26 63.9993 10.43C63.9993 10.57 64.0293 10.745 64.0893 10.955C64.1593 11.165 64.2293 11.305 64.2993 11.375C64.2993 11.375 64.3343 11.445 64.4043 11.585C64.4743 11.715 64.5593 11.855 64.6593 12.005C64.9493 12.645 65.0243 13.105 64.8843 13.385C64.7443 13.665 64.3793 13.825 63.7893 13.865ZM68.8266 14.75C68.4966 14.7 68.2716 14.575 68.1516 14.375C68.0416 14.185 68.0166 13.89 68.0766 13.49C68.1366 13.3 68.1716 13.13 68.1816 12.98C68.2016 12.82 68.2466 12.72 68.3166 12.68C68.3166 12.68 68.3216 12.665 68.3316 12.635C68.3516 12.605 68.3466 12.575 68.3166 12.545C68.3166 12.415 68.3616 12.235 68.4516 12.005C68.4716 11.945 68.4966 11.875 68.5266 11.795C68.5666 11.705 68.5866 11.66 68.5866 11.66C68.5366 11.58 68.5366 11.515 68.5866 11.465C68.6366 11.415 68.6866 11.37 68.7366 11.33C68.7966 11.28 68.8016 11.225 68.7516 11.165C68.7316 11.125 68.7566 11.035 68.8266 10.895C68.8966 10.745 68.9766 10.59 69.0666 10.43C69.1566 10.27 69.2166 10.145 69.2466 10.055C69.2466 10.035 69.2716 9.965 69.3216 9.845C69.3716 9.725 69.4316 9.585 69.5016 9.425C69.5716 9.265 69.6366 9.12 69.6966 8.99C69.7666 8.86 69.8116 8.775 69.8316 8.735C69.9316 8.685 69.8916 8.65 69.7116 8.63C69.5316 8.61 69.3416 8.605 69.1416 8.615C68.8316 8.605 68.5816 8.59 68.3916 8.57C68.2116 8.55 68.0616 8.505 67.9416 8.435C67.8216 8.295 67.7766 8.195 67.8066 8.135C67.8466 8.065 67.9666 8.025 68.1666 8.015C68.2966 8.005 68.3966 8 68.4666 8C68.5466 8 68.6466 7.995 68.7666 7.985C68.8966 7.965 69.0966 7.94 69.3666 7.91L70.1316 7.85L70.1766 7.595C70.2566 7.465 70.3216 7.35 70.3716 7.25C70.4316 7.14 70.4816 7.03 70.5216 6.92C70.5616 6.81 70.5916 6.695 70.6116 6.575C70.6116 6.575 70.6566 6.495 70.7466 6.335C70.8366 6.165 70.8916 5.99 70.9116 5.81C71.0316 5.61 71.1366 5.43 71.2266 5.27C71.3166 5.1 71.3716 4.995 71.3916 4.955C71.5016 4.865 71.5766 4.82 71.6166 4.82C71.6666 4.82 71.7666 4.87 71.9166 4.97C72.0066 5.02 72.0866 5.08 72.1566 5.15C72.2266 5.22 72.2716 5.295 72.2916 5.375C72.3116 5.445 72.2816 5.515 72.2016 5.585C72.1816 5.625 72.1516 5.7 72.1116 5.81C72.0716 5.91 72.0416 5.995 72.0216 6.065C71.9616 6.135 71.8866 6.25 71.7966 6.41C71.7166 6.56 71.6616 6.715 71.6316 6.875C71.5516 7.045 71.4766 7.2 71.4066 7.34C71.3366 7.47 71.2816 7.535 71.2416 7.535C71.2616 7.635 71.3216 7.685 71.4216 7.685C71.5216 7.675 71.6866 7.665 71.9166 7.655C72.1066 7.635 72.2366 7.615 72.3066 7.595C72.3866 7.565 72.4766 7.575 72.5766 7.625C72.6266 7.695 72.6666 7.775 72.6966 7.865C72.7266 7.955 72.7316 8.04 72.7116 8.12C72.7016 8.19 72.6616 8.24 72.5916 8.27C72.5416 8.27 72.4366 8.3 72.2766 8.36C72.1266 8.41 71.9366 8.44 71.7066 8.45L70.9116 8.525L70.6566 9.035C70.5866 9.165 70.5266 9.285 70.4766 9.395C70.4266 9.495 70.3916 9.555 70.3716 9.575C70.3716 9.635 70.3366 9.725 70.2666 9.845C70.2066 9.965 70.1416 10.095 70.0716 10.235C70.0116 10.405 69.9416 10.56 69.8616 10.7C69.7916 10.84 69.7566 10.91 69.7566 10.91C69.7166 10.91 69.6966 10.94 69.6966 11C69.7466 11.12 69.7316 11.21 69.6516 11.27C69.6016 11.3 69.5566 11.345 69.5166 11.405C69.4866 11.455 69.4716 11.48 69.4716 11.48C69.5116 11.52 69.5166 11.57 69.4866 11.63C69.4666 11.69 69.4366 11.755 69.3966 11.825C69.3966 11.905 69.3716 12.02 69.3216 12.17C69.2816 12.32 69.2366 12.46 69.1866 12.59C69.1966 12.77 69.2066 12.885 69.2166 12.935C69.2266 12.985 69.2516 13.005 69.2916 12.995C69.3416 13.005 69.3866 13.005 69.4266 12.995C69.4666 12.985 69.5066 12.98 69.5466 12.98C69.6866 12.92 69.6116 13.27 69.3216 14.03C69.1616 14.28 69.0516 14.46 68.9916 14.57C68.9316 14.69 68.8766 14.75 68.8266 14.75ZM73.7174 13.565C73.6374 13.585 73.5324 13.595 73.4024 13.595C73.2724 13.585 73.1574 13.57 73.0574 13.55C72.9674 13.52 72.9224 13.49 72.9224 13.46C72.9224 13.41 72.8974 13.385 72.8474 13.385C72.8474 13.385 72.8224 13.365 72.7724 13.325C72.7324 13.285 72.6674 13.245 72.5774 13.205C72.4874 13.065 72.4424 12.915 72.4424 12.755C72.4424 12.585 72.4874 12.32 72.5774 11.96C72.6074 11.71 72.7024 11.42 72.8624 11.09C73.0324 10.75 73.2374 10.405 73.4774 10.055C73.7174 9.705 73.9674 9.39 74.2274 9.11C74.4974 8.83 74.7424 8.625 74.9624 8.495C75.1024 8.355 75.2724 8.28 75.4724 8.27C75.6724 8.26 75.8624 8.305 76.0424 8.405C76.1424 8.455 76.2424 8.535 76.3424 8.645C76.4424 8.755 76.5374 8.875 76.6274 9.005C76.7174 9.135 76.7924 9.265 76.8524 9.395C76.8824 9.505 76.8974 9.605 76.8974 9.695C76.9074 9.775 76.9074 9.875 76.8974 9.995C76.8974 10.115 76.8824 10.295 76.8524 10.535C76.8024 10.715 76.7574 10.935 76.7174 11.195C76.6874 11.455 76.6724 11.68 76.6724 11.87C76.6524 12.06 76.6724 12.195 76.7324 12.275C76.8024 12.355 76.9024 12.36 77.0324 12.29C77.1524 12.23 77.2674 12.205 77.3774 12.215C77.4874 12.215 77.5724 12.245 77.6324 12.305C77.7024 12.365 77.7374 12.455 77.7374 12.575C77.7374 12.695 77.6774 12.82 77.5574 12.95C77.4474 13.07 77.3074 13.175 77.1374 13.265C76.9774 13.345 76.8224 13.385 76.6724 13.385C76.5624 13.385 76.4574 13.32 76.3574 13.19C76.2574 13.05 76.1674 12.885 76.0874 12.695C76.0174 12.495 75.9524 12.305 75.8924 12.125L75.8024 11.78L75.1574 12.395C75.0274 12.535 74.8974 12.665 74.7674 12.785C74.6474 12.895 74.5724 12.975 74.5424 13.025C74.4924 13.115 74.3974 13.205 74.2574 13.295C74.1274 13.385 73.9474 13.475 73.7174 13.565ZM73.7624 12.68C73.9324 12.58 74.1274 12.435 74.3474 12.245C74.5674 12.045 74.7824 11.83 74.9924 11.6C75.2024 11.36 75.3774 11.14 75.5174 10.94C75.6874 10.71 75.8174 10.495 75.9074 10.295C75.9974 10.095 76.0624 9.905 76.1024 9.725C76.0624 9.615 75.9974 9.5 75.9074 9.38C75.8174 9.25 75.7374 9.18 75.6674 9.17C75.4474 9.17 75.2124 9.31 74.9624 9.59C74.7224 9.86 74.4874 10.155 74.2574 10.475C74.2174 10.525 74.1624 10.605 74.0924 10.715C74.0224 10.825 73.9524 10.93 73.8824 11.03C73.8224 11.12 73.7824 11.18 73.7624 11.21C73.7324 11.25 73.6724 11.365 73.5824 11.555C73.5024 11.735 73.4224 11.92 73.3424 12.11C73.2624 12.29 73.2224 12.41 73.2224 12.47C73.2224 12.53 73.2274 12.595 73.2374 12.665C73.2574 12.735 73.3074 12.78 73.3874 12.8C73.4674 12.82 73.5924 12.78 73.7624 12.68ZM78.7479 13.475C78.6579 13.405 78.5929 13.335 78.5529 13.265C78.5229 13.195 78.5229 13.06 78.5529 12.86C78.5829 12.58 78.6229 12.335 78.6729 12.125C78.7229 11.905 78.7829 11.655 78.8529 11.375C78.8729 11.255 78.9279 11.05 79.0179 10.76C79.1179 10.47 79.2379 10.155 79.3779 9.815C79.5179 9.475 79.6579 9.155 79.7979 8.855C79.9379 8.545 80.0579 8.315 80.1579 8.165C80.2379 8.105 80.3329 8.08 80.4429 8.09C80.5629 8.1 80.6629 8.145 80.7429 8.225C80.8529 8.315 80.8679 8.475 80.7879 8.705C80.7179 8.925 80.5679 9.275 80.3379 9.755C80.2179 10.025 80.1279 10.23 80.0679 10.37C80.0079 10.5 79.9829 10.58 79.9929 10.61C80.0029 10.63 80.0479 10.615 80.1279 10.565C80.1879 10.455 80.2979 10.33 80.4579 10.19C80.6179 10.04 80.7879 9.895 80.9679 9.755C81.1479 9.615 81.3179 9.49 81.4779 9.38C81.6379 9.27 81.7479 9.2 81.8079 9.17C81.8879 9.12 81.9779 9.08 82.0779 9.05C82.1879 9.01 82.2629 8.98 82.3029 8.96C82.5329 8.85 82.7679 8.81 83.0079 8.84C83.2479 8.87 83.3979 8.96 83.4579 9.11C83.4679 9.19 83.4979 9.25 83.5479 9.29C83.6079 9.33 83.6379 9.35 83.6379 9.35C83.6779 9.35 83.6979 9.365 83.6979 9.395C83.7079 9.425 83.7129 9.44 83.7129 9.44C83.7129 9.51 83.6579 9.555 83.5479 9.575C83.4479 9.585 83.3179 9.595 83.1579 9.605C83.0279 9.615 82.9129 9.64 82.8129 9.68C82.7129 9.72 82.5929 9.77 82.4529 9.83C82.0729 10.05 81.7079 10.265 81.3579 10.475C81.0179 10.685 80.6879 10.965 80.3679 11.315C80.2979 11.395 80.2279 11.49 80.1579 11.6C80.0879 11.71 80.0129 11.83 79.9329 11.96C79.8829 12.01 79.8329 12.12 79.7829 12.29C79.7329 12.46 79.6879 12.625 79.6479 12.785C79.6179 12.935 79.6029 13.025 79.6029 13.055C79.6029 13.055 79.5879 13.105 79.5579 13.205C79.5279 13.295 79.4779 13.385 79.4079 13.475C79.2879 13.635 79.1879 13.715 79.1079 13.715C79.0279 13.715 78.9079 13.635 78.7479 13.475ZM85.7432 13.97C85.6032 13.93 85.4882 13.885 85.3982 13.835C85.3082 13.775 85.1882 13.68 85.0382 13.55C84.9182 13.39 84.8232 13.24 84.7532 13.1C84.6932 12.96 84.6532 12.8 84.6332 12.62C84.6132 12.43 84.6032 12.19 84.6032 11.9C84.6032 11.78 84.6232 11.6 84.6632 11.36C84.7132 11.12 84.7682 10.87 84.8282 10.61C84.8982 10.34 84.9582 10.1 85.0082 9.89C85.0682 9.68 85.1032 9.545 85.1132 9.485C85.1432 9.355 85.0932 9.28 84.9632 9.26C84.8332 9.24 84.6882 9.235 84.5282 9.245C84.3782 9.245 84.2782 9.23 84.2282 9.2C84.1882 9.19 84.1682 9.175 84.1682 9.155C84.1682 9.125 84.1682 9.11 84.1682 9.11C84.1682 9.07 84.1632 9.045 84.1532 9.035C84.1532 9.015 84.1382 8.98 84.1082 8.93C84.0882 8.89 84.0982 8.835 84.1382 8.765C84.1882 8.685 84.2682 8.635 84.3782 8.615C84.4682 8.595 84.5882 8.58 84.7382 8.57C84.8982 8.55 85.0582 8.515 85.2182 8.465C85.3782 8.405 85.5082 8.315 85.6082 8.195C85.6982 7.975 85.8032 7.73 85.9232 7.46C86.0432 7.19 86.1582 6.95 86.2682 6.74C86.3882 6.52 86.4682 6.385 86.5082 6.335C86.6782 6.245 86.8032 6.21 86.8832 6.23C86.9632 6.24 87.0532 6.325 87.1532 6.485C87.2032 6.555 87.2382 6.61 87.2582 6.65C87.2882 6.69 87.2932 6.75 87.2732 6.83C87.2532 6.91 87.1982 7.035 87.1082 7.205C87.0282 7.375 86.9032 7.62 86.7332 7.94C86.6832 8.04 86.6382 8.13 86.5982 8.21C86.5582 8.28 86.5382 8.315 86.5382 8.315C86.5782 8.325 86.6382 8.33 86.7182 8.33C86.7982 8.33 86.8982 8.325 87.0182 8.315C87.1282 8.295 87.2682 8.28 87.4382 8.27C87.6082 8.25 87.7432 8.25 87.8432 8.27C88.0732 8.27 88.2432 8.315 88.3532 8.405C88.4632 8.485 88.5232 8.625 88.5332 8.825C88.5532 8.935 88.5282 9 88.4582 9.02C88.3982 9.04 88.2332 9.05 87.9632 9.05C87.8732 9.05 87.7332 9.055 87.5432 9.065C87.3532 9.075 87.1532 9.085 86.9432 9.095C86.7432 9.105 86.5682 9.12 86.4182 9.14C86.2782 9.15 86.2082 9.165 86.2082 9.185C86.1782 9.205 86.1282 9.3 86.0582 9.47C85.9982 9.64 85.9332 9.835 85.8632 10.055C85.8032 10.265 85.7482 10.455 85.6982 10.625C85.6282 10.965 85.5732 11.305 85.5332 11.645C85.5032 11.985 85.4982 12.28 85.5182 12.53C85.5382 12.78 85.5932 12.955 85.6832 13.055C85.7732 13.145 85.9482 13.165 86.2082 13.115C86.4682 13.055 86.6782 12.96 86.8382 12.83C87.0182 12.68 87.1632 12.605 87.2732 12.605C87.3932 12.605 87.4582 12.66 87.4682 12.77C87.4882 12.87 87.4332 13.015 87.3032 13.205C87.1832 13.385 87.0332 13.545 86.8532 13.685C86.6732 13.815 86.4832 13.91 86.2832 13.97C86.0932 14.02 85.9132 14.02 85.7432 13.97ZM89.629 13.22C89.439 13.29 89.279 13.325 89.149 13.325C89.029 13.315 88.894 13.255 88.744 13.145C88.554 12.965 88.489 12.785 88.549 12.605C88.619 12.415 88.784 12.23 89.044 12.05C89.224 11.94 89.354 11.88 89.434 11.87C89.524 11.86 89.659 11.895 89.839 11.975C90.139 12.165 90.269 12.375 90.229 12.605C90.199 12.835 89.999 13.04 89.629 13.22ZM92.6026 13.22C92.4126 13.29 92.2526 13.325 92.1226 13.325C92.0026 13.315 91.8676 13.255 91.7176 13.145C91.5276 12.965 91.4626 12.785 91.5226 12.605C91.5926 12.415 91.7576 12.23 92.0176 12.05C92.1976 11.94 92.3276 11.88 92.4076 11.87C92.4976 11.86 92.6326 11.895 92.8126 11.975C93.1126 12.165 93.2426 12.375 93.2026 12.605C93.1726 12.835 92.9726 13.04 92.6026 13.22ZM95.5763 13.22C95.3863 13.29 95.2263 13.325 95.0963 13.325C94.9763 13.315 94.8413 13.255 94.6913 13.145C94.5013 12.965 94.4363 12.785 94.4963 12.605C94.5663 12.415 94.7313 12.23 94.9913 12.05C95.1713 11.94 95.3012 11.88 95.3813 11.87C95.4713 11.86 95.6063 11.895 95.7863 11.975C96.0863 12.165 96.2163 12.375 96.1763 12.605C96.1463 12.835 95.9463 13.04 95.5763 13.22Z" fill="white"/>
<path d="M40.9069 17.973L41.4047 18.0206L41.4047 18.0206L40.9069 17.973ZM89.9305 90.682L89.788 91.1613L89.788 91.1613L89.9305 90.682ZM91.2381 91.4396C91.481 91.3081 91.5712 91.0047 91.4396 90.7619L89.2964 86.805C89.1648 86.5622 88.8614 86.472 88.6186 86.6035C88.3758 86.7351 88.2856 87.0385 88.4171 87.2813L90.3222 90.7985L86.8051 92.7036C86.5622 92.8352 86.472 93.1386 86.6035 93.3814C86.7351 93.6242 87.0385 93.7145 87.2813 93.5829L91.2381 91.4396ZM40.5023 16.9524L40.4092 17.9254L41.4047 18.0206L41.4977 17.0476L40.5023 16.9524ZM89.788 91.1613L90.8575 91.4793L91.1425 90.5207L90.073 90.2028L89.788 91.1613ZM40.4092 17.9254C37.2453 51.0026 57.9376 81.6923 89.788 91.1613L90.073 90.2028C58.6808 80.87 38.2863 50.6219 41.4047 18.0206L40.4092 17.9254Z" fill="white"/>
</svg>
